ply
format ascii 1.0
comment VCGLIB generated
element vertex 578
property float x
property float y
property float z
element face 1152
property list uchar int vertex_indices
end_header
0 0 -1 
-0.1526996 0 -0.9882727 
-0.1501503 0.02778567 -0.9882728 
-0.1501503 -0.02778568 -0.9882728 
-0.1419783 -0.05620789 -0.9882726 
-0.1278088 -0.08355867 -0.9882725 
-0.1079749 -0.1079749 -0.9882725 
-0.08355869 -0.1278088 -0.9882727 
-0.0562079 -0.1419783 -0.9882727 
-0.02778568 -0.1501503 -0.9882727 
0 -0.1526995 -0.9882727 
0.02778568 -0.1501503 -0.9882728 
0.05620789 -0.1419782 -0.9882726 
0.08355867 -0.1278088 -0.9882726 
0.1079749 -0.1079749 -0.9882727 
0.1278088 -0.08355868 -0.9882727 
0.1419783 -0.0562079 -0.9882727 
0.1501503 -0.02778568 -0.9882727 
0.1526995 0 -0.9882726 
0.1501503 0.02778568 -0.9882728 
0.1419782 0.0562079 -0.9882727 
0.1278088 0.08355867 -0.9882726 
0.1079749 0.1079749 -0.9882726 
0.08355868 0.1278088 -0.9882727 
0.0562079 0.1419783 -0.9882727 
0.02778568 0.1501503 -0.9882727 
0 0.1526995 -0.9882726 
-0.02778568 0.1501503 -0.9882728 
-0.0562079 0.1419782 -0.9882727 
-0.08355867 0.1278088 -0.9882725 
-0.1079749 0.1079749 -0.9882725 
-0.1278088 0.08355868 -0.9882727 
-0.1419783 0.05620789 -0.9882726 
-0.3095042 0 -0.9508981 
-0.3043371 0.05631832 -0.950898 
-0.3043371 -0.05631832 -0.9508981 
-0.2877734 -0.1139268 -0.9508981 
-0.2590536 -0.1693637 -0.950898 
-0.2188525 -0.2188525 -0.9508981 
-0.1693637 -0.2590536 -0.9508981 
-0.1139268 -0.2877733 -0.9508981 
-0.05631833 -0.3043371 -0.9508981 
0 -0.3095042 -0.9508981 
0.05631832 -0.3043371 -0.9508981 
0.1139268 -0.2877733 -0.9508981 
0.1693637 -0.2590536 -0.9508982 
0.2188525 -0.2188525 -0.9508981 
0.2590536 -0.1693637 -0.9508981 
0.2877733 -0.1139268 -0.9508981 
0.3043371 -0.05631833 -0.9508981 
0.3095042 0 -0.9508981 
0.3043371 0.05631832 -0.9508981 
0.2877733 0.1139269 -0.9508981 
0.2590536 0.1693637 -0.9508982 
0.2188525 0.2188525 -0.9508981 
0.1693637 0.2590536 -0.9508981 
0.1139268 0.2877733 -0.9508981 
0.05631833 0.3043371 -0.9508981 
0 0.3095042 -0.9508981 
-0.05631832 0.3043371 -0.9508981 
-0.1139269 0.2877733 -0.9508981 
-0.1693637 0.2590536 -0.9508982 
-0.2188525 0.2188525 -0.9508981 
-0.2590536 0.1693637 -0.9508981 
-0.2877734 0.1139268 -0.9508981 
-0.4640172 0 -0.8858261 
-0.4562707 0.08443398 -0.8858262 
-0.4562706 -0.08443398 -0.8858262 
-0.4314378 -0.1708023 -0.8858261 
-0.3883803 -0.2539147 -0.8858262 
-0.3281097 -0.3281097 -0.8858262 
-0.2539148 -0.3883803 -0.8858262 
-0.1708023 -0.4314378 -0.8858262 
-0.08443399 -0.4562706 -0.8858261 
0 -0.4640172 -0.8858262 
0.08443399 -0.4562706 -0.8858262 
0.1708023 -0.4314377 -0.8858261 
0.2539147 -0.3883803 -0.8858262 
0.3281097 -0.3281097 -0.8858262 
0.3883803 -0.2539147 -0.8858262 
0.4314378 -0.1708023 -0.8858262 
0.4562706 -0.08443398 -0.8858261 
0.4640172 0 -0.8858261 
0.4562706 0.08443399 -0.8858262 
0.4314377 0.1708023 -0.8858261 
0.3883803 0.2539147 -0.8858262 
0.3281097 0.3281097 -0.8858261 
0.2539147 0.3883803 -0.8858262 
0.1708023 0.4314378 -0.8858262 
0.08443398 0.4562706 -0.8858261 
0 0.4640172 -0.8858261 
-0.08443399 0.4562706 -0.8858262 
-0.1708023 0.4314377 -0.8858261 
-0.2539147 0.3883803 -0.8858262 
-0.3281097 0.3281097 -0.8858262 
-0.3883803 0.2539147 -0.8858262 
-0.4314378 0.1708023 -0.8858262 
-0.6089847 0 -0.793182 
-0.5988179 0.1108127 -0.7931819 
-0.5988179 -0.1108127 -0.7931821 
-0.5662268 -0.224164 -0.793182 
-0.5097174 -0.3332424 -0.793182 
-0.4306172 -0.4306172 -0.793182 
-0.3332424 -0.5097174 -0.793182 
-0.224164 -0.5662267 -0.7931819 
-0.1108127 -0.5988178 -0.793182 
0 -0.6089846 -0.793182 
0.1108127 -0.5988179 -0.793182 
0.224164 -0.5662267 -0.793182 
0.3332424 -0.5097174 -0.793182 
0.4306172 -0.4306172 -0.793182 
0.5097173 -0.3332423 -0.793182 
0.5662268 -0.224164 -0.793182 
0.5988178 -0.1108127 -0.793182 
0.6089846 0 -0.793182 
0.5988179 0.1108127 -0.793182 
0.5662267 0.224164 -0.7931819 
0.5097174 0.3332424 -0.793182 
0.4306172 0.4306172 -0.793182 
0.3332423 0.5097173 -0.793182 
0.224164 0.5662268 -0.793182 
0.1108127 0.5988178 -0.793182 
0 0.6089846 -0.793182 
-0.1108127 0.5988179 -0.793182 
-0.224164 0.5662267 -0.7931819 
-0.3332424 0.5097174 -0.793182 
-0.4306172 0.4306172 -0.793182 
-0.5097174 0.3332423 -0.793182 
-0.5662268 0.224164 -0.793182 
-0.7372512 0 -0.6756187 
-0.724943 0.1341524 -0.6756186 
-0.724943 -0.1341525 -0.6756188 
-0.6854875 -0.2713782 -0.6756187 
-0.6170759 -0.403431 -0.6756188 
-0.5213153 -0.5213152 -0.6756187 
-0.403431 -0.6170759 -0.6756187 
-0.2713783 -0.6854875 -0.6756188 
-0.1341525 -0.724943 -0.6756186 
0 -0.7372512 -0.6756188 
0.1341525 -0.724943 -0.6756188 
0.2713782 -0.6854874 -0.6756187 
0.403431 -0.6170759 -0.6756187 
0.5213153 -0.5213153 -0.6756188 
0.6170759 -0.403431 -0.6756187 
0.6854875 -0.2713782 -0.6756188 
0.7249429 -0.1341525 -0.6756186 
0.7372512 0 -0.6756188 
0.724943 0.1341525 -0.6756188 
0.6854874 0.2713782 -0.6756187 
0.6170759 0.403431 -0.6756187 
0.5213153 0.5213153 -0.6756187 
0.403431 0.6170759 -0.6756187 
0.2713782 0.6854875 -0.6756188 
0.1341525 0.7249429 -0.6756186 
0 0.7372512 -0.6756188 
-0.1341525 0.724943 -0.6756188 
-0.2713782 0.6854874 -0.6756187 
-0.403431 0.6170759 -0.6756187 
-0.5213153 0.5213153 -0.6756187 
-0.6170759 0.403431 -0.6756187 
-0.6854875 0.2713782 -0.6756186 
-0.8428449 0 -0.5381564 
-0.828774 0.1533666 -0.5381564 
-0.828774 -0.1533666 -0.5381564 
-0.7836674 -0.3102467 -0.5381564 
-0.7054574 -0.4612129 -0.5381564 
-0.5959813 -0.5959813 -0.5381564 
-0.461213 -0.7054574 -0.5381565 
-0.3102468 -0.7836673 -0.5381565 
-0.1533666 -0.8287739 -0.5381564 
0 -0.8428448 -0.5381564 
0.1533666 -0.8287739 -0.5381564 
0.3102467 -0.7836673 -0.5381564 
0.4612129 -0.7054573 -0.5381564 
0.5959813 -0.5959813 -0.5381565 
0.7054573 -0.4612129 -0.5381564 
0.7836673 -0.3102467 -0.5381565 
0.8287739 -0.1533666 -0.5381564 
0.8428448 0 -0.5381564 
0.8287739 0.1533666 -0.5381564 
0.7836673 0.3102467 -0.5381564 
0.7054573 0.4612129 -0.5381564 
0.5959813 0.5959813 -0.5381565 
0.4612129 0.7054573 -0.5381564 
0.3102467 0.7836673 -0.5381565 
0.1533666 0.8287739 -0.5381564 
0 0.8428448 -0.5381564 
-0.1533666 0.8287739 -0.5381564 
-0.3102468 0.7836673 -0.5381564 
-0.4612129 0.7054573 -0.5381564 
-0.5959814 0.5959813 -0.5381564 
-0.7054574 0.4612129 -0.5381564 
-0.7836674 0.3102467 -0.5381565 
-0.9218739 0 -0.3874903 
-0.9064834 0.1677469 -0.3874902 
-0.9064834 -0.1677469 -0.3874902 
-0.8571475 -0.3393368 -0.3874902 
-0.7716042 -0.5044583 -0.3874902 
-0.6518632 -0.6518632 -0.3874903 
-0.5044583 -0.7716042 -0.3874902 
-0.3393369 -0.8571473 -0.3874903 
-0.167747 -0.9064834 -0.3874902 
0 -0.9218737 -0.3874902 
0.1677469 -0.9064834 -0.3874903 
0.3393368 -0.8571473 -0.3874903 
0.5044583 -0.7716042 -0.3874903 
0.6518632 -0.6518632 -0.3874903 
0.7716041 -0.5044582 -0.3874902 
0.8571473 -0.3393368 -0.3874903 
0.9064834 -0.1677469 -0.3874902 
0.9218737 0 -0.3874902 
0.9064834 0.167747 -0.3874903 
0.8571473 0.3393368 -0.3874903 
0.7716042 0.5044583 -0.3874903 
0.6518632 0.6518632 -0.3874903 
0.5044582 0.7716041 -0.3874902 
0.3393368 0.8571473 -0.3874903 
0.1677469 0.9064834 -0.3874902 
0 0.9218737 -0.3874902 
-0.167747 0.9064834 -0.3874903 
-0.3393368 0.8571473 -0.3874903 
-0.5044583 0.7716042 -0.3874902 
-0.6518632 0.6518632 -0.3874903 
-0.7716042 0.5044582 -0.3874902 
-0.8571475 0.3393368 -0.3874902 
-0.9729635 0 -0.2309592 
-0.9567202 0.1770434 -0.2309592 
-0.9567202 -0.1770434 -0.2309592 
-0.9046499 -0.3581426 -0.2309592 
-0.814366 -0.532415 -0.2309592 
-0.687989 -0.687989 -0.2309592 
-0.532415 -0.8143659 -0.2309592 
-0.3581427 -0.90465 -0.2309592 
-0.1770434 -0.9567201 -0.2309592 
0 -0.9729632 -0.2309592 
0.1770434 -0.9567201 -0.2309592 
0.3581426 -0.9046498 -0.2309592 
0.532415 -0.814366 -0.2309592 
0.687989 -0.687989 -0.2309592 
0.8143659 -0.532415 -0.2309592 
0.90465 -0.3581427 -0.2309592 
0.9567201 -0.1770434 -0.2309592 
0.9729633 0 -0.2309592 
0.9567201 0.1770434 -0.2309592 
0.9046498 0.3581426 -0.2309592 
0.814366 0.532415 -0.2309592 
0.687989 0.687989 -0.2309592 
0.532415 0.8143659 -0.2309592 
0.3581427 0.90465 -0.2309592 
0.1770434 0.9567201 -0.2309592 
0 0.9729633 -0.2309592 
-0.1770434 0.9567201 -0.2309592 
-0.3581426 0.9046498 -0.2309592 
-0.532415 0.814366 -0.2309592 
-0.687989 0.6879889 -0.2309592 
-0.814366 0.532415 -0.2309592 
-0.90465 0.3581426 -0.2309592 
-0.9971466 0 -0.07548969 
-0.9804996 0.1814438 -0.07548968 
-0.9804996 -0.1814438 -0.07548968 
-0.9271352 -0.3670444 -0.07548969 
-0.8346072 -0.5456483 -0.07548968 
-0.7050891 -0.705089 -0.07548969 
-0.5456483 -0.8346071 -0.07548968 
-0.3670444 -0.9271351 -0.0754897 
-0.1814438 -0.9804994 -0.07548968 
0 -0.9971465 -0.07548968 
0.1814438 -0.9804995 -0.07548968 
0.3670444 -0.9271351 -0.07548969 
0.5456483 -0.8346072 -0.07548969 
0.705089 -0.705089 -0.07548968 
0.8346071 -0.5456483 -0.07548968 
0.9271351 -0.3670444 -0.07548969 
0.9804995 -0.1814438 -0.07548968 
0.9971464 0 -0.07548969 
0.9804995 0.1814438 -0.07548968 
0.9271351 0.3670444 -0.07548969 
0.8346072 0.5456483 -0.07548969 
0.705089 0.705089 -0.07548968 
0.5456483 0.8346071 -0.07548968 
0.3670444 0.9271351 -0.07548969 
0.1814438 0.9804995 -0.07548968 
0 0.9971464 -0.07548969 
-0.1814438 0.9804995 -0.07548968 
-0.3670444 0.9271351 -0.07548969 
-0.5456483 0.8346071 -0.07548969 
-0.7050891 0.705089 -0.07548969 
-0.8346072 0.5456483 -0.07548968 
-0.9271352 0.3670443 -0.07548968 
-0.9971465 0 0.07548986 
-0.9804996 0.1814438 0.07548986 
-0.9804996 -0.1814438 0.07548986 
-0.9271351 -0.3670443 0.07548986 
-0.8346072 -0.5456483 0.07548986 
-0.7050891 -0.705089 0.07548986 
-0.5456483 -0.8346071 0.07548986 
-0.3670444 -0.9271351 0.07548986 
-0.1814438 -0.9804994 0.07548986 
0 -0.9971464 0.07548986 
0.1814438 -0.9804994 0.07548986 
0.3670444 -0.9271351 0.07548986 
0.5456483 -0.8346072 0.07548987 
0.705089 -0.705089 0.07548986 
0.8346072 -0.5456483 0.07548986 
0.9271351 -0.3670443 0.07548986 
0.9804994 -0.1814438 0.07548986 
0.9971464 0 0.07548986 
0.9804994 0.1814438 0.07548986 
0.9271351 0.3670444 0.07548986 
0.8346072 0.5456483 0.07548987 
0.705089 0.705089 0.07548986 
0.5456483 0.8346072 0.07548986 
0.3670443 0.9271351 0.07548986 
0.1814438 0.9804994 0.07548986 
0 0.9971464 0.07548986 
-0.1814438 0.9804994 0.07548986 
-0.3670444 0.9271351 0.07548986 
-0.5456483 0.8346072 0.07548987 
-0.705089 0.705089 0.07548986 
-0.8346072 0.5456483 0.07548986 
-0.9271351 0.3670443 0.07548986 
-0.9729635 0 0.2309593 
-0.9567202 0.1770434 0.2309593 
-0.9567201 -0.1770433 0.2309593 
-0.90465 -0.3581426 0.2309593 
-0.814366 -0.532415 0.2309593 
-0.687989 -0.6879889 0.2309593 
-0.5324151 -0.814366 0.2309593 
-0.3581427 -0.9046499 0.2309593 
-0.1770434 -0.9567201 0.2309593 
0 -0.9729633 0.2309593 
0.1770434 -0.9567201 0.2309593 
0.3581426 -0.9046499 0.2309593 
0.532415 -0.8143659 0.2309593 
0.6879889 -0.6879889 0.2309593 
0.8143659 -0.532415 0.2309593 
0.9046499 -0.3581426 0.2309593 
0.9567201 -0.1770434 0.2309593 
0.9729633 0 0.2309593 
0.9567201 0.1770434 0.2309593 
0.9046499 0.3581426 0.2309593 
0.8143659 0.532415 0.2309593 
0.6879889 0.6879889 0.2309593 
0.532415 0.8143659 0.2309593 
0.3581426 0.9046499 0.2309593 
0.1770434 0.9567201 0.2309593 
0 0.9729633 0.2309593 
-0.1770434 0.9567201 0.2309593 
-0.3581426 0.9046499 0.2309593 
-0.532415 0.8143659 0.2309593 
-0.687989 0.6879889 0.2309593 
-0.814366 0.532415 0.2309593 
-0.9046501 0.3581426 0.2309593 
-0.9218738 0 0.3874902 
-0.9064834 0.1677469 0.3874902 
-0.9064835 -0.167747 0.3874903 
-0.8571473 -0.3393368 0.3874902 
-0.7716042 -0.5044582 0.3874903 
-0.6518632 -0.6518632 0.3874903 
-0.5044583 -0.7716042 0.3874902 
-0.3393369 -0.8571475 0.3874903 
-0.167747 -0.9064834 0.3874903 
0 -0.9218738 0.3874903 
0.1677469 -0.9064834 0.3874903 
0.3393368 -0.8571473 0.3874903 
0.5044583 -0.7716042 0.3874903 
0.6518632 -0.6518632 0.3874903 
0.7716042 -0.5044583 0.3874903 
0.8571475 -0.3393369 0.3874903 
0.9064834 -0.167747 0.3874903 
0.9218738 0 0.3874903 
0.9064834 0.167747 0.3874903 
0.8571473 0.3393368 0.3874903 
0.7716042 0.5044583 0.3874903 
0.6518632 0.6518632 0.3874903 
0.5044583 0.7716042 0.3874903 
0.3393369 0.8571475 0.3874903 
0.167747 0.9064834 0.3874903 
0 0.9218738 0.3874903 
-0.167747 0.9064834 0.3874903 
-0.3393368 0.8571473 0.3874903 
-0.5044583 0.7716042 0.3874903 
-0.6518632 0.6518632 0.3874903 
-0.7716042 0.5044582 0.3874902 
-0.8571476 0.3393369 0.3874903 
-0.842845 0 0.5381564 
-0.828774 0.1533666 0.5381564 
-0.828774 -0.1533666 0.5381563 
-0.7836673 -0.3102467 0.5381563 
-0.7054574 -0.4612129 0.5381563 
-0.5959814 -0.5959813 0.5381563 
-0.461213 -0.7054574 0.5381564 
-0.3102468 -0.7836673 0.5381563 
-0.1533666 -0.8287739 0.5381564 
0 -0.842845 0.5381564 
0.1533666 -0.8287739 0.5381564 
0.3102468 -0.7836673 0.5381564 
0.461213 -0.7054574 0.5381564 
0.5959814 -0.5959814 0.5381564 
0.7054574 -0.461213 0.5381564 
0.7836673 -0.3102468 0.5381564 
0.8287739 -0.1533666 0.5381564 
0.8428448 0 0.5381564 
0.8287739 0.1533666 0.5381564 
0.7836673 0.3102468 0.5381564 
0.7054574 0.461213 0.5381564 
0.5959814 0.5959814 0.5381564 
0.461213 0.7054574 0.5381564 
0.3102468 0.7836673 0.5381564 
0.1533666 0.8287739 0.5381564 
0 0.8428448 0.5381564 
-0.1533666 0.8287739 0.5381564 
-0.3102468 0.7836673 0.5381564 
-0.461213 0.7054574 0.5381563 
-0.5959813 0.5959812 0.5381563 
-0.7054574 0.461213 0.5381564 
-0.7836674 0.3102467 0.5381564 
-0.7372513 0 0.6756186 
-0.7249432 0.1341525 0.6756186 
-0.7249432 -0.1341525 0.6756185 
-0.6854876 -0.2713783 0.6756186 
-0.617076 -0.4034311 0.6756186 
-0.5213155 -0.5213153 0.6756186 
-0.4034311 -0.617076 0.6756186 
-0.2713783 -0.6854876 0.6756186 
-0.1341525 -0.7249432 0.6756186 
0 -0.7372512 0.6756186 
0.1341525 -0.7249432 0.6756186 
0.2713783 -0.6854876 0.6756186 
0.4034311 -0.617076 0.6756186 
0.5213153 -0.5213153 0.6756185 
0.617076 -0.4034311 0.6756186 
0.6854876 -0.2713783 0.6756186 
0.7249432 -0.1341525 0.6756186 
0.7372512 0 0.6756185 
0.7249431 0.1341525 0.6756186 
0.6854876 0.2713783 0.6756186 
0.617076 0.4034311 0.6756186 
0.5213153 0.5213153 0.6756185 
0.4034311 0.617076 0.6756186 
0.2713783 0.6854876 0.6756186 
0.1341525 0.7249432 0.6756186 
0 0.7372512 0.6756185 
-0.1341525 0.7249431 0.6756186 
-0.2713783 0.6854876 0.6756186 
-0.4034311 0.617076 0.6756186 
-0.5213154 0.5213153 0.6756185 
-0.617076 0.4034311 0.6756186 
-0.6854876 0.2713782 0.6756186 
-0.6089849 0 0.7931818 
-0.5988182 0.1108127 0.7931818 
-0.5988182 -0.1108128 0.7931819 
-0.5662271 -0.2241641 0.7931819 
-0.5097177 -0.3332425 0.7931818 
-0.4306174 -0.4306173 0.7931818 
-0.3332425 -0.5097176 0.7931818 
-0.2241641 -0.566227 0.7931818 
-0.1108127 -0.5988181 0.7931818 
0 -0.6089848 0.7931818 
0.1108127 -0.5988181 0.7931818 
0.2241641 -0.566227 0.7931819 
0.3332425 -0.5097176 0.7931818 
0.4306173 -0.4306173 0.7931818 
0.5097176 -0.3332425 0.7931817 
0.566227 -0.2241641 0.7931818 
0.5988181 -0.1108127 0.7931818 
0.6089848 0 0.7931818 
0.5988181 0.1108127 0.7931818 
0.5662271 0.2241641 0.7931819 
0.5097176 0.3332425 0.7931818 
0.4306173 0.4306173 0.7931818 
0.3332424 0.5097176 0.7931817 
0.2241641 0.566227 0.7931818 
0.1108127 0.5988181 0.7931818 
0 0.6089848 0.7931818 
-0.1108127 0.5988181 0.7931818 
-0.2241641 0.566227 0.7931819 
-0.3332425 0.5097176 0.7931818 
-0.4306174 0.4306173 0.7931818 
-0.5097176 0.3332424 0.7931818 
-0.5662271 0.2241641 0.7931818 
-0.4640176 0 0.885826 
-0.456271 0.08443403 0.885826 
-0.4562709 -0.08443404 0.8858259 
-0.4314381 -0.1708024 0.885826 
-0.3883806 -0.2539149 0.885826 
-0.32811 -0.3281099 0.885826 
-0.2539149 -0.3883806 0.885826 
-0.1708024 -0.4314381 0.885826 
-0.08443405 -0.4562709 0.885826 
0 -0.4640175 0.885826 
0.08443404 -0.4562709 0.8858259 
0.1708024 -0.4314381 0.8858261 
0.2539149 -0.3883806 0.8858259 
0.3281099 -0.3281099 0.885826 
0.3883806 -0.253915 0.8858261 
0.4314381 -0.1708024 0.885826 
0.456271 -0.08443405 0.8858261 
0.4640175 0 0.8858259 
0.4562709 0.08443404 0.8858259 
0.4314381 0.1708024 0.8858261 
0.3883806 0.2539149 0.8858259 
0.3281099 0.3281099 0.885826 
0.253915 0.3883806 0.8858261 
0.1708024 0.4314381 0.885826 
0.08443405 0.456271 0.8858261 
0 0.4640175 0.8858259 
-0.08443405 0.4562709 0.8858259 
-0.1708024 0.4314381 0.8858261 
-0.2539149 0.3883806 0.8858259 
-0.32811 0.3281099 0.885826 
-0.3883806 0.2539149 0.8858261 
-0.4314381 0.1708024 0.8858259 
-0.3095046 0 0.9508979 
-0.3043375 0.05631839 0.9508979 
-0.3043375 -0.05631839 0.9508979 
-0.2877738 -0.113927 0.9508981 
-0.259054 -0.1693639 0.9508981 
-0.2188528 -0.2188528 0.9508979 
-0.1693639 -0.2590539 0.9508981 
-0.113927 -0.2877737 0.950898 
-0.05631839 -0.3043375 0.9508979 
0 -0.3095045 0.9508979 
0.05631839 -0.3043375 0.9508979 
0.113927 -0.2877738 0.9508981 
0.1693639 -0.2590539 0.950898 
0.2188528 -0.2188528 0.950898 
0.2590539 -0.1693639 0.9508979 
0.2877737 -0.113927 0.950898 
0.3043375 -0.0563184 0.950898 
0.3095045 0 0.9508979 
0.3043375 0.0563184 0.950898 
0.2877738 0.113927 0.9508981 
0.2590539 0.1693639 0.9508979 
0.2188528 0.2188528 0.950898 
0.1693639 0.2590539 0.9508979 
0.113927 0.2877737 0.950898 
0.0563184 0.3043375 0.950898 
0 0.3095045 0.9508979 
-0.0563184 0.3043375 0.9508981 
-0.113927 0.2877738 0.9508981 
-0.1693639 0.2590539 0.9508979 
-0.2188528 0.2188528 0.950898 
-0.2590539 0.1693639 0.9508979 
-0.2877738 0.113927 0.9508979 
-0.1527 0 0.9882726 
-0.1501507 0.02778576 0.9882725 
-0.1501507 -0.02778576 0.9882726 
-0.1419787 -0.05620806 0.9882726 
-0.1278092 -0.08355893 0.9882726 
-0.1079752 -0.1079752 0.9882726 
-0.08355893 -0.1278092 0.9882727 
-0.05620806 -0.1419787 0.9882725 
-0.02778576 -0.1501507 0.9882726 
0 -0.1527 0.9882726 
0.02778576 -0.1501507 0.9882726 
0.05620805 -0.1419787 0.9882725 
0.08355894 -0.1278092 0.9882727 
0.1079752 -0.1079752 0.9882726 
0.1278092 -0.08355892 0.9882725 
0.1419787 -0.05620806 0.9882726 
0.1501507 -0.02778576 0.9882725 
0.1527 0 0.9882726 
0.1501507 0.02778576 0.9882726 
0.1419787 0.05620806 0.9882725 
0.1278092 0.08355894 0.9882727 
0.1079752 0.1079752 0.9882726 
0.08355892 0.1278092 0.9882725 
0.05620806 0.1419787 0.9882726 
0.02778576 0.1501507 0.9882725 
0 0.1527 0.9882726 
-0.02778576 0.1501507 0.9882726 
-0.05620806 0.1419787 0.9882725 
-0.08355895 0.1278092 0.9882727 
-0.1079752 0.1079752 0.9882725 
-0.1278092 0.08355892 0.9882727 
-0.1419787 0.05620805 0.9882725 
-5.057622e-07 0 1 
3 0 1 2 
3 0 3 1 
3 0 4 3 
3 0 5 4 
3 0 6 5 
3 0 7 6 
3 0 8 7 
3 0 9 8 
3 0 10 9 
3 0 11 10 
3 0 12 11 
3 0 13 12 
3 0 14 13 
3 0 15 14 
3 0 16 15 
3 0 17 16 
3 0 18 17 
3 0 19 18 
3 0 20 19 
3 0 21 20 
3 0 22 21 
3 0 23 22 
3 0 24 23 
3 0 25 24 
3 0 26 25 
3 0 27 26 
3 0 28 27 
3 0 29 28 
3 0 30 29 
3 0 31 30 
3 0 32 31 
3 0 2 32 
3 1 33 34 
3 1 34 2 
3 3 35 33 
3 3 33 1 
3 4 36 35 
3 4 35 3 
3 5 37 36 
3 5 36 4 
3 6 38 37 
3 6 37 5 
3 7 39 38 
3 7 38 6 
3 8 40 39 
3 8 39 7 
3 9 41 40 
3 9 40 8 
3 10 42 41 
3 10 41 9 
3 11 43 42 
3 11 42 10 
3 12 44 43 
3 12 43 11 
3 13 45 44 
3 13 44 12 
3 14 46 45 
3 14 45 13 
3 15 47 46 
3 15 46 14 
3 16 48 47 
3 16 47 15 
3 17 49 48 
3 17 48 16 
3 18 50 49 
3 18 49 17 
3 19 51 50 
3 19 50 18 
3 20 52 51 
3 20 51 19 
3 21 53 52 
3 21 52 20 
3 22 54 53 
3 22 53 21 
3 23 55 54 
3 23 54 22 
3 24 56 55 
3 24 55 23 
3 25 57 56 
3 25 56 24 
3 26 58 57 
3 26 57 25 
3 27 59 58 
3 27 58 26 
3 28 60 59 
3 28 59 27 
3 29 61 60 
3 29 60 28 
3 30 62 61 
3 30 61 29 
3 31 63 62 
3 31 62 30 
3 32 64 63 
3 32 63 31 
3 2 34 64 
3 2 64 32 
3 33 65 66 
3 33 66 34 
3 35 67 65 
3 35 65 33 
3 36 68 67 
3 36 67 35 
3 37 69 68 
3 37 68 36 
3 38 70 69 
3 38 69 37 
3 39 71 70 
3 39 70 38 
3 40 72 71 
3 40 71 39 
3 41 73 72 
3 41 72 40 
3 42 74 73 
3 42 73 41 
3 43 75 74 
3 43 74 42 
3 44 76 75 
3 44 75 43 
3 45 77 76 
3 45 76 44 
3 46 78 77 
3 46 77 45 
3 47 79 78 
3 47 78 46 
3 48 80 79 
3 48 79 47 
3 49 81 80 
3 49 80 48 
3 50 82 81 
3 50 81 49 
3 51 83 82 
3 51 82 50 
3 52 84 83 
3 52 83 51 
3 53 85 84 
3 53 84 52 
3 54 86 85 
3 54 85 53 
3 55 87 86 
3 55 86 54 
3 56 88 87 
3 56 87 55 
3 57 89 88 
3 57 88 56 
3 58 90 89 
3 58 89 57 
3 59 91 90 
3 59 90 58 
3 60 92 91 
3 60 91 59 
3 61 93 92 
3 61 92 60 
3 62 94 93 
3 62 93 61 
3 63 95 94 
3 63 94 62 
3 64 96 95 
3 64 95 63 
3 34 66 96 
3 34 96 64 
3 65 97 98 
3 65 98 66 
3 67 99 97 
3 67 97 65 
3 68 100 99 
3 68 99 67 
3 69 101 100 
3 69 100 68 
3 70 102 101 
3 70 101 69 
3 71 103 102 
3 71 102 70 
3 72 104 103 
3 72 103 71 
3 73 105 104 
3 73 104 72 
3 74 106 105 
3 74 105 73 
3 75 107 106 
3 75 106 74 
3 76 108 107 
3 76 107 75 
3 77 109 108 
3 77 108 76 
3 78 110 109 
3 78 109 77 
3 79 111 110 
3 79 110 78 
3 80 112 111 
3 80 111 79 
3 81 113 112 
3 81 112 80 
3 82 114 113 
3 82 113 81 
3 83 115 114 
3 83 114 82 
3 84 116 115 
3 84 115 83 
3 85 117 116 
3 85 116 84 
3 86 118 117 
3 86 117 85 
3 87 119 118 
3 87 118 86 
3 88 120 119 
3 88 119 87 
3 89 121 120 
3 89 120 88 
3 90 122 121 
3 90 121 89 
3 91 123 122 
3 91 122 90 
3 92 124 123 
3 92 123 91 
3 93 125 124 
3 93 124 92 
3 94 126 125 
3 94 125 93 
3 95 127 126 
3 95 126 94 
3 96 128 127 
3 96 127 95 
3 66 98 128 
3 66 128 96 
3 97 129 130 
3 97 130 98 
3 99 131 129 
3 99 129 97 
3 100 132 131 
3 100 131 99 
3 101 133 132 
3 101 132 100 
3 102 134 133 
3 102 133 101 
3 103 135 134 
3 103 134 102 
3 104 136 135 
3 104 135 103 
3 105 137 136 
3 105 136 104 
3 106 138 137 
3 106 137 105 
3 107 139 138 
3 107 138 106 
3 108 140 139 
3 108 139 107 
3 109 141 140 
3 109 140 108 
3 110 142 141 
3 110 141 109 
3 111 143 142 
3 111 142 110 
3 112 144 143 
3 112 143 111 
3 113 145 144 
3 113 144 112 
3 114 146 145 
3 114 145 113 
3 115 147 146 
3 115 146 114 
3 116 148 147 
3 116 147 115 
3 117 149 148 
3 117 148 116 
3 118 150 149 
3 118 149 117 
3 119 151 150 
3 119 150 118 
3 120 152 151 
3 120 151 119 
3 121 153 152 
3 121 152 120 
3 122 154 153 
3 122 153 121 
3 123 155 154 
3 123 154 122 
3 124 156 155 
3 124 155 123 
3 125 157 156 
3 125 156 124 
3 126 158 157 
3 126 157 125 
3 127 159 158 
3 127 158 126 
3 128 160 159 
3 128 159 127 
3 98 130 160 
3 98 160 128 
3 129 161 162 
3 129 162 130 
3 131 163 161 
3 131 161 129 
3 132 164 163 
3 132 163 131 
3 133 165 164 
3 133 164 132 
3 134 166 165 
3 134 165 133 
3 135 167 166 
3 135 166 134 
3 136 168 167 
3 136 167 135 
3 137 169 168 
3 137 168 136 
3 138 170 169 
3 138 169 137 
3 139 171 170 
3 139 170 138 
3 140 172 171 
3 140 171 139 
3 141 173 172 
3 141 172 140 
3 142 174 173 
3 142 173 141 
3 143 175 174 
3 143 174 142 
3 144 176 175 
3 144 175 143 
3 145 177 176 
3 145 176 144 
3 146 178 177 
3 146 177 145 
3 147 179 178 
3 147 178 146 
3 148 180 179 
3 148 179 147 
3 149 181 180 
3 149 180 148 
3 150 182 181 
3 150 181 149 
3 151 183 182 
3 151 182 150 
3 152 184 183 
3 152 183 151 
3 153 185 184 
3 153 184 152 
3 154 186 185 
3 154 185 153 
3 155 187 186 
3 155 186 154 
3 156 188 187 
3 156 187 155 
3 157 189 188 
3 157 188 156 
3 158 190 189 
3 158 189 157 
3 159 191 190 
3 159 190 158 
3 160 192 191 
3 160 191 159 
3 130 162 192 
3 130 192 160 
3 161 193 194 
3 161 194 162 
3 163 195 193 
3 163 193 161 
3 164 196 195 
3 164 195 163 
3 165 197 196 
3 165 196 164 
3 166 198 197 
3 166 197 165 
3 167 199 198 
3 167 198 166 
3 168 200 199 
3 168 199 167 
3 169 201 200 
3 169 200 168 
3 170 202 201 
3 170 201 169 
3 171 203 202 
3 171 202 170 
3 172 204 203 
3 172 203 171 
3 173 205 204 
3 173 204 172 
3 174 206 205 
3 174 205 173 
3 175 207 206 
3 175 206 174 
3 176 208 207 
3 176 207 175 
3 177 209 208 
3 177 208 176 
3 178 210 209 
3 178 209 177 
3 179 211 210 
3 179 210 178 
3 180 212 211 
3 180 211 179 
3 181 213 212 
3 181 212 180 
3 182 214 213 
3 182 213 181 
3 183 215 214 
3 183 214 182 
3 184 216 215 
3 184 215 183 
3 185 217 216 
3 185 216 184 
3 186 218 217 
3 186 217 185 
3 187 219 218 
3 187 218 186 
3 188 220 219 
3 188 219 187 
3 189 221 220 
3 189 220 188 
3 190 222 221 
3 190 221 189 
3 191 223 222 
3 191 222 190 
3 192 224 223 
3 192 223 191 
3 162 194 224 
3 162 224 192 
3 193 225 226 
3 193 226 194 
3 195 227 225 
3 195 225 193 
3 196 228 227 
3 196 227 195 
3 197 229 228 
3 197 228 196 
3 198 230 229 
3 198 229 197 
3 199 231 230 
3 199 230 198 
3 200 232 231 
3 200 231 199 
3 201 233 232 
3 201 232 200 
3 202 234 233 
3 202 233 201 
3 203 235 234 
3 203 234 202 
3 204 236 235 
3 204 235 203 
3 205 237 236 
3 205 236 204 
3 206 238 237 
3 206 237 205 
3 207 239 238 
3 207 238 206 
3 208 240 239 
3 208 239 207 
3 209 241 240 
3 209 240 208 
3 210 242 241 
3 210 241 209 
3 211 243 242 
3 211 242 210 
3 212 244 243 
3 212 243 211 
3 213 245 244 
3 213 244 212 
3 214 246 245 
3 214 245 213 
3 215 247 246 
3 215 246 214 
3 216 248 247 
3 216 247 215 
3 217 249 248 
3 217 248 216 
3 218 250 249 
3 218 249 217 
3 219 251 250 
3 219 250 218 
3 220 252 251 
3 220 251 219 
3 221 253 252 
3 221 252 220 
3 222 254 253 
3 222 253 221 
3 223 255 254 
3 223 254 222 
3 224 256 255 
3 224 255 223 
3 194 226 256 
3 194 256 224 
3 225 257 258 
3 225 258 226 
3 227 259 257 
3 227 257 225 
3 228 260 259 
3 228 259 227 
3 229 261 260 
3 229 260 228 
3 230 262 261 
3 230 261 229 
3 231 263 262 
3 231 262 230 
3 232 264 263 
3 232 263 231 
3 233 265 264 
3 233 264 232 
3 234 266 265 
3 234 265 233 
3 235 267 266 
3 235 266 234 
3 236 268 267 
3 236 267 235 
3 237 269 268 
3 237 268 236 
3 238 270 269 
3 238 269 237 
3 239 271 270 
3 239 270 238 
3 240 272 271 
3 240 271 239 
3 241 273 272 
3 241 272 240 
3 242 274 273 
3 242 273 241 
3 243 275 274 
3 243 274 242 
3 244 276 275 
3 244 275 243 
3 245 277 276 
3 245 276 244 
3 246 278 277 
3 246 277 245 
3 247 279 278 
3 247 278 246 
3 248 280 279 
3 248 279 247 
3 249 281 280 
3 249 280 248 
3 250 282 281 
3 250 281 249 
3 251 283 282 
3 251 282 250 
3 252 284 283 
3 252 283 251 
3 253 285 284 
3 253 284 252 
3 254 286 285 
3 254 285 253 
3 255 287 286 
3 255 286 254 
3 256 288 287 
3 256 287 255 
3 226 258 288 
3 226 288 256 
3 257 289 290 
3 257 290 258 
3 259 291 289 
3 259 289 257 
3 260 292 291 
3 260 291 259 
3 261 293 292 
3 261 292 260 
3 262 294 293 
3 262 293 261 
3 263 295 294 
3 263 294 262 
3 264 296 295 
3 264 295 263 
3 265 297 296 
3 265 296 264 
3 266 298 297 
3 266 297 265 
3 267 299 298 
3 267 298 266 
3 268 300 299 
3 268 299 267 
3 269 301 300 
3 269 300 268 
3 270 302 301 
3 270 301 269 
3 271 303 302 
3 271 302 270 
3 272 304 303 
3 272 303 271 
3 273 305 304 
3 273 304 272 
3 274 306 305 
3 274 305 273 
3 275 307 306 
3 275 306 274 
3 276 308 307 
3 276 307 275 
3 277 309 308 
3 277 308 276 
3 278 310 309 
3 278 309 277 
3 279 311 310 
3 279 310 278 
3 280 312 311 
3 280 311 279 
3 281 313 312 
3 281 312 280 
3 282 314 313 
3 282 313 281 
3 283 315 314 
3 283 314 282 
3 284 316 315 
3 284 315 283 
3 285 317 316 
3 285 316 284 
3 286 318 317 
3 286 317 285 
3 287 319 318 
3 287 318 286 
3 288 320 319 
3 288 319 287 
3 258 290 320 
3 258 320 288 
3 289 321 322 
3 289 322 290 
3 291 323 321 
3 291 321 289 
3 292 324 323 
3 292 323 291 
3 293 325 324 
3 293 324 292 
3 294 326 325 
3 294 325 293 
3 295 327 326 
3 295 326 294 
3 296 328 327 
3 296 327 295 
3 297 329 328 
3 297 328 296 
3 298 330 329 
3 298 329 297 
3 299 331 330 
3 299 330 298 
3 300 332 331 
3 300 331 299 
3 301 333 332 
3 301 332 300 
3 302 334 333 
3 302 333 301 
3 303 335 334 
3 303 334 302 
3 304 336 335 
3 304 335 303 
3 305 337 336 
3 305 336 304 
3 306 338 337 
3 306 337 305 
3 307 339 338 
3 307 338 306 
3 308 340 339 
3 308 339 307 
3 309 341 340 
3 309 340 308 
3 310 342 341 
3 310 341 309 
3 311 343 342 
3 311 342 310 
3 312 344 343 
3 312 343 311 
3 313 345 344 
3 313 344 312 
3 314 346 345 
3 314 345 313 
3 315 347 346 
3 315 346 314 
3 316 348 347 
3 316 347 315 
3 317 349 348 
3 317 348 316 
3 318 350 349 
3 318 349 317 
3 319 351 350 
3 319 350 318 
3 320 352 351 
3 320 351 319 
3 290 322 352 
3 290 352 320 
3 321 353 354 
3 321 354 322 
3 323 355 353 
3 323 353 321 
3 324 356 355 
3 324 355 323 
3 325 357 356 
3 325 356 324 
3 326 358 357 
3 326 357 325 
3 327 359 358 
3 327 358 326 
3 328 360 359 
3 328 359 327 
3 329 361 360 
3 329 360 328 
3 330 362 361 
3 330 361 329 
3 331 363 362 
3 331 362 330 
3 332 364 363 
3 332 363 331 
3 333 365 364 
3 333 364 332 
3 334 366 365 
3 334 365 333 
3 335 367 366 
3 335 366 334 
3 336 368 367 
3 336 367 335 
3 337 369 368 
3 337 368 336 
3 338 370 369 
3 338 369 337 
3 339 371 370 
3 339 370 338 
3 340 372 371 
3 340 371 339 
3 341 373 372 
3 341 372 340 
3 342 374 373 
3 342 373 341 
3 343 375 374 
3 343 374 342 
3 344 376 375 
3 344 375 343 
3 345 377 376 
3 345 376 344 
3 346 378 377 
3 346 377 345 
3 347 379 378 
3 347 378 346 
3 348 380 379 
3 348 379 347 
3 349 381 380 
3 349 380 348 
3 350 382 381 
3 350 381 349 
3 351 383 382 
3 351 382 350 
3 352 384 383 
3 352 383 351 
3 322 354 384 
3 322 384 352 
3 353 385 386 
3 353 386 354 
3 355 387 385 
3 355 385 353 
3 356 388 387 
3 356 387 355 
3 357 389 388 
3 357 388 356 
3 358 390 389 
3 358 389 357 
3 359 391 390 
3 359 390 358 
3 360 392 391 
3 360 391 359 
3 361 393 392 
3 361 392 360 
3 362 394 393 
3 362 393 361 
3 363 395 394 
3 363 394 362 
3 364 396 395 
3 364 395 363 
3 365 397 396 
3 365 396 364 
3 366 398 397 
3 366 397 365 
3 367 399 398 
3 367 398 366 
3 368 400 399 
3 368 399 367 
3 369 401 400 
3 369 400 368 
3 370 402 401 
3 370 401 369 
3 371 403 402 
3 371 402 370 
3 372 404 403 
3 372 403 371 
3 373 405 404 
3 373 404 372 
3 374 406 405 
3 374 405 373 
3 375 407 406 
3 375 406 374 
3 376 408 407 
3 376 407 375 
3 377 409 408 
3 377 408 376 
3 378 410 409 
3 378 409 377 
3 379 411 410 
3 379 410 378 
3 380 412 411 
3 380 411 379 
3 381 413 412 
3 381 412 380 
3 382 414 413 
3 382 413 381 
3 383 415 414 
3 383 414 382 
3 384 416 415 
3 384 415 383 
3 354 386 416 
3 354 416 384 
3 385 417 418 
3 385 418 386 
3 387 419 417 
3 387 417 385 
3 388 420 419 
3 388 419 387 
3 389 421 420 
3 389 420 388 
3 390 422 421 
3 390 421 389 
3 391 423 422 
3 391 422 390 
3 392 424 423 
3 392 423 391 
3 393 425 424 
3 393 424 392 
3 394 426 425 
3 394 425 393 
3 395 427 426 
3 395 426 394 
3 396 428 427 
3 396 427 395 
3 397 429 428 
3 397 428 396 
3 398 430 429 
3 398 429 397 
3 399 431 430 
3 399 430 398 
3 400 432 431 
3 400 431 399 
3 401 433 432 
3 401 432 400 
3 402 434 433 
3 402 433 401 
3 403 435 434 
3 403 434 402 
3 404 436 435 
3 404 435 403 
3 405 437 436 
3 405 436 404 
3 406 438 437 
3 406 437 405 
3 407 439 438 
3 407 438 406 
3 408 440 439 
3 408 439 407 
3 409 441 440 
3 409 440 408 
3 410 442 441 
3 410 441 409 
3 411 443 442 
3 411 442 410 
3 412 444 443 
3 412 443 411 
3 413 445 444 
3 413 444 412 
3 414 446 445 
3 414 445 413 
3 415 447 446 
3 415 446 414 
3 416 448 447 
3 416 447 415 
3 386 418 448 
3 386 448 416 
3 417 449 450 
3 417 450 418 
3 419 451 449 
3 419 449 417 
3 420 452 451 
3 420 451 419 
3 421 453 452 
3 421 452 420 
3 422 454 453 
3 422 453 421 
3 423 455 454 
3 423 454 422 
3 424 456 455 
3 424 455 423 
3 425 457 456 
3 425 456 424 
3 426 458 457 
3 426 457 425 
3 427 459 458 
3 427 458 426 
3 428 460 459 
3 428 459 427 
3 429 461 460 
3 429 460 428 
3 430 462 461 
3 430 461 429 
3 431 463 462 
3 431 462 430 
3 432 464 463 
3 432 463 431 
3 433 465 464 
3 433 464 432 
3 434 466 465 
3 434 465 433 
3 435 467 466 
3 435 466 434 
3 436 468 467 
3 436 467 435 
3 437 469 468 
3 437 468 436 
3 438 470 469 
3 438 469 437 
3 439 471 470 
3 439 470 438 
3 440 472 471 
3 440 471 439 
3 441 473 472 
3 441 472 440 
3 442 474 473 
3 442 473 441 
3 443 475 474 
3 443 474 442 
3 444 476 475 
3 444 475 443 
3 445 477 476 
3 445 476 444 
3 446 478 477 
3 446 477 445 
3 447 479 478 
3 447 478 446 
3 448 480 479 
3 448 479 447 
3 418 450 480 
3 418 480 448 
3 449 481 482 
3 449 482 450 
3 451 483 481 
3 451 481 449 
3 452 484 483 
3 452 483 451 
3 453 485 484 
3 453 484 452 
3 454 486 485 
3 454 485 453 
3 455 487 486 
3 455 486 454 
3 456 488 487 
3 456 487 455 
3 457 489 488 
3 457 488 456 
3 458 490 489 
3 458 489 457 
3 459 491 490 
3 459 490 458 
3 460 492 491 
3 460 491 459 
3 461 493 492 
3 461 492 460 
3 462 494 493 
3 462 493 461 
3 463 495 494 
3 463 494 462 
3 464 496 495 
3 464 495 463 
3 465 497 496 
3 465 496 464 
3 466 498 497 
3 466 497 465 
3 467 499 498 
3 467 498 466 
3 468 500 499 
3 468 499 467 
3 469 501 500 
3 469 500 468 
3 470 502 501 
3 470 501 469 
3 471 503 502 
3 471 502 470 
3 472 504 503 
3 472 503 471 
3 473 505 504 
3 473 504 472 
3 474 506 505 
3 474 505 473 
3 475 507 506 
3 475 506 474 
3 476 508 507 
3 476 507 475 
3 477 509 508 
3 477 508 476 
3 478 510 509 
3 478 509 477 
3 479 511 510 
3 479 510 478 
3 480 512 511 
3 480 511 479 
3 450 482 512 
3 450 512 480 
3 481 513 514 
3 481 514 482 
3 483 515 513 
3 483 513 481 
3 484 516 515 
3 484 515 483 
3 485 517 516 
3 485 516 484 
3 486 518 517 
3 486 517 485 
3 487 519 518 
3 487 518 486 
3 488 520 519 
3 488 519 487 
3 489 521 520 
3 489 520 488 
3 490 522 521 
3 490 521 489 
3 491 523 522 
3 491 522 490 
3 492 524 523 
3 492 523 491 
3 493 525 524 
3 493 524 492 
3 494 526 525 
3 494 525 493 
3 495 527 526 
3 495 526 494 
3 496 528 527 
3 496 527 495 
3 497 529 528 
3 497 528 496 
3 498 530 529 
3 498 529 497 
3 499 531 530 
3 499 530 498 
3 500 532 531 
3 500 531 499 
3 501 533 532 
3 501 532 500 
3 502 534 533 
3 502 533 501 
3 503 535 534 
3 503 534 502 
3 504 536 535 
3 504 535 503 
3 505 537 536 
3 505 536 504 
3 506 538 537 
3 506 537 505 
3 507 539 538 
3 507 538 506 
3 508 540 539 
3 508 539 507 
3 509 541 540 
3 509 540 508 
3 510 542 541 
3 510 541 509 
3 511 543 542 
3 511 542 510 
3 512 544 543 
3 512 543 511 
3 482 514 544 
3 482 544 512 
3 513 545 546 
3 513 546 514 
3 515 547 545 
3 515 545 513 
3 516 548 547 
3 516 547 515 
3 517 549 548 
3 517 548 516 
3 518 550 549 
3 518 549 517 
3 519 551 550 
3 519 550 518 
3 520 552 551 
3 520 551 519 
3 521 553 552 
3 521 552 520 
3 522 554 553 
3 522 553 521 
3 523 555 554 
3 523 554 522 
3 524 556 555 
3 524 555 523 
3 525 557 556 
3 525 556 524 
3 526 558 557 
3 526 557 525 
3 527 559 558 
3 527 558 526 
3 528 560 559 
3 528 559 527 
3 529 561 560 
3 529 560 528 
3 530 562 561 
3 530 561 529 
3 531 563 562 
3 531 562 530 
3 532 564 563 
3 532 563 531 
3 533 565 564 
3 533 564 532 
3 534 566 565 
3 534 565 533 
3 535 567 566 
3 535 566 534 
3 536 568 567 
3 536 567 535 
3 537 569 568 
3 537 568 536 
3 538 570 569 
3 538 569 537 
3 539 571 570 
3 539 570 538 
3 540 572 571 
3 540 571 539 
3 541 573 572 
3 541 572 540 
3 542 574 573 
3 542 573 541 
3 543 575 574 
3 543 574 542 
3 544 576 575 
3 544 575 543 
3 514 546 576 
3 514 576 544 
3 545 577 546 
3 547 577 545 
3 548 577 547 
3 549 577 548 
3 550 577 549 
3 551 577 550 
3 552 577 551 
3 553 577 552 
3 554 577 553 
3 555 577 554 
3 556 577 555 
3 557 577 556 
3 558 577 557 
3 559 577 558 
3 560 577 559 
3 561 577 560 
3 562 577 561 
3 563 577 562 
3 564 577 563 
3 565 577 564 
3 566 577 565 
3 567 577 566 
3 568 577 567 
3 569 577 568 
3 570 577 569 
3 571 577 570 
3 572 577 571 
3 573 577 572 
3 574 577 573 
3 575 577 574 
3 576 577 575 
3 546 577 576 
